<?xml version="1.0" encoding="utf-8"?>
<!-- Generator: Adobe Illustrator 19.2.0, SVG Export Plug-In . SVG Version: 6.00 Build 0)  -->
<svg version="1.1" id="Layer_1" xmlns="http://www.w3.org/2000/svg" xmlns:xlink="http://www.w3.org/1999/xlink" x="0px" y="0px"
	 viewBox="0 0 1194.5 843.9" style="enable-background:new 0 0 1194.5 843.9;" xml:space="preserve">
<style type="text/css">
	.st0{fill:#111427;}
	.st1{opacity:0.29;fill:none;stroke:#3F4C9E;stroke-width:0.7093;stroke-miterlimit:10;}
</style>
<rect x="-0.6" y="-0.7" class="st0" width="1194.3" height="844.5"/>
<line class="st1" x1="599.1" y1="-0.6" x2="598.6" y2="852.6"/>
<circle class="st1" cx="599.1" cy="316.1" r="4.5"/>
<circle class="st1" cx="608.9" cy="290.8" r="4.5"/>
<circle class="st1" cx="589.5" cy="290.8" r="4.5"/>
<circle class="st1" cx="599.3" cy="266.5" r="4.5"/>
<circle class="st1" cx="627.1" cy="338.3" r="4.5"/>
<circle class="st1" cx="613.4" cy="352.6" r="4.5"/>
<circle class="st1" cx="817.3" cy="304.5" r="4.5"/>
<circle class="st1" cx="941.6" cy="-0.2" r="4.5"/>
<circle class="st1" cx="1194.5" cy="104.3" r="4.5"/>
<circle class="st1" cx="572.2" cy="339.5" r="4.5"/>
<circle class="st1" cx="585.1" cy="353.6" r="4.5"/>
<circle class="st1" cx="632.2" cy="404.1" r="4.5"/>
<circle class="st1" cx="566.1" cy="404.1" r="4.5"/>
<circle class="st1" cx="598.9" cy="368.5" r="4.5"/>
<circle class="st1" cx="666.3" cy="439.8" r="4.5"/>
<circle class="st1" cx="712.3" cy="563.2" r="4.5"/>
<circle class="st1" cx="700.1" cy="593.3" r="4.5"/>
<circle class="st1" cx="496.1" cy="590.8" r="4.5"/>
<circle class="st1" cx="485" cy="564.7" r="4.5"/>
<circle class="st1" cx="464.2" cy="514.1" r="4.5"/>
<circle class="st1" cx="457" cy="498.4" r="4.5"/>
<circle class="st1" cx="500.5" cy="474.3" r="4.5"/>
<circle class="st1" cx="524.2" cy="462.2" r="4.5"/>
<circle class="st1" cx="549.2" cy="448.8" r="4.5"/>
<circle class="st1" cx="532.8" cy="440.4" r="4.5"/>
<circle class="st1" cx="733.3" cy="511.8" r="4.5"/>
<circle class="st1" cx="739.7" cy="497.2" r="4.5"/>
<circle class="st1" cx="699.7" cy="475.8" r="4.5"/>
<circle class="st1" cx="675.2" cy="462.2" r="4.5"/>
<circle class="st1" cx="649.3" cy="449.1" r="4.5"/>
<circle class="st1" cx="648.8" cy="395" r="4.5"/>
<circle class="st1" cx="550.2" cy="395.5" r="4.5"/>
<circle class="st1" cx="378" cy="304" r="4.5"/>
<circle class="st1" cx="184" cy="200.5" r="4.5"/>
<circle class="st1" cx="0" cy="102.2" r="4.5"/>
<circle class="st1" cx="253.6" cy="1.2" r="4.5"/>
<circle class="st1" cx="133.5" cy="350.2" r="4.5"/>
<circle class="st1" cx="83.8" cy="496.1" r="4.5"/>
<circle class="st1" cx="1.8" cy="741.7" r="4.5"/>
<circle class="st1" cx="157.6" cy="844.3" r="4.5"/>
<circle class="st1" cx="122.4" cy="677.4" r="4.5"/>
<circle class="st1" cx="268.1" cy="599.4" r="4.5"/>
<circle class="st1" cx="310.7" cy="679.3" r="4.5"/>
<circle class="st1" cx="386.8" cy="819.4" r="4.5"/>
<circle class="st1" cx="399.2" cy="843.9" r="4.5"/>
<circle class="st1" cx="598.9" cy="843.9" r="4.5"/>
<circle class="st1" cx="795.6" cy="834.7" r="4.5"/>
<circle class="st1" cx="808.1" cy="811.3" r="4.5"/>
<circle class="st1" cx="884.4" cy="672.7" r="4.5"/>
<circle class="st1" cx="925.9" cy="596.8" r="4.5"/>
<circle class="st1" cx="1077.8" cy="678.3" r="4.5"/>
<circle class="st1" cx="1045" cy="843.8" r="4.5"/>
<circle class="st1" cx="598.9" cy="421.6" r="4.5"/>
<polyline class="st1" points="718.9,-0.2 399.8,844.3 -0.9,101.4 "/>
<line class="st1" x1="799.2" y1="844.3" x2="479.4" y2="-1.6"/>
<path class="st1" d="M797.2,843.3"/>
<polygon class="st1" points="0,743.5 1194.5,102.3 1045,843.9 252.3,-0.6 "/>
<line class="st1" x1="791.1" y1="843.9" x2="1194.5" y2="102.3"/>
<polyline class="st1" points="1193.7,740.5 -0.9,101.4 157.9,844.3 532.3,440.4 943.1,-2.8 598.9,844.3 252.3,-0.6 "/>
<line class="st1" x1="701.7" y1="-0.2" x2="377.5" y2="844.3"/>
<line class="st1" x1="496.9" y1="0" x2="821.8" y2="846.5"/>
<path class="st1" d="M730.8,553.2"/>
<path class="st1" d="M583.4,779.4"/>
<path class="st1" d="M561,757.7"/>
</svg>
